<svg width="960" height="229" viewBox="0 0 960 229" fill="none" xmlns="http://www.w3.org/2000/svg">
<path d="M884.2 187.5C877.9 187.5 871.6 186.9 865.5 185.6C859.5 184.4 853.6 182.5 848 180.2C842.4 177.8 837.1 174.9 832.1 171.5C827.2 168.2 822.5 164.3 818.3 160.1C814.1 155.9 810.3 151.2 806.9 146.3C803.6 141.3 800.7 135.9 798.3 130.4C795.9 124.8 794.1 118.8 792.9 112.8C791.6 106.7 791 100.3 791 94C791 87.7 791.6 81.2999 792.9 75.2C794.1 69.2 795.9 63.2001 798.3 57.6001C800.7 52.1001 803.6 46.7 806.9 41.7C810.3 36.7999 814.1 32.0999 818.3 27.8999C822.5 23.6999 827.2 19.8 832.1 16.5C837.1 13.1 842.4 10.2 848 7.80005C853.6 5.50005 859.5 3.5999 865.5 2.3999C871.6 1.0999 877.9 0.5 884.2 0.5C891.9 0.5 899.5 1.40005 906.9 3.30005C914 5.10005 920.9 7.7001 927.5 11.1001C933.9 14.5001 939.9 18.5999 945.4 23.3999C950.9 28.1999 955.8 33.6 960 39.5V148.5C955.8 154.4 950.9 159.8 945.4 164.6C939.9 169.4 933.9 173.5 927.5 176.9C920.9 180.3 914 182.9 906.9 184.7C899.5 186.6 891.9 187.5 884.2 187.5Z" fill="#0D50CE"/>
<path d="M845 229C834.2 229 825.5 220.3 825.5 209.5C825.5 198.7 834.2 190 845 190C855.8 190 864.5 198.7 864.5 209.5C864.5 220.3 855.8 229 845 229Z" fill="#0D50CE"/>
<path d="M0 164.8V127.6L79.4 81.8C81.9 80.3 84.7 79.6001 87.6 79.6001C90.4 79.6001 93.2 80.3 95.6 81.7C98.2 83.1 100.3 85.2 101.7 87.8C102.833 89.6667 103.533 91.6999 103.8 93.8999C104.067 96.0332 103.933 98.1333 103.4 100.2C102.8 102.2 101.867 104.067 100.6 105.8C99.2666 107.533 97.6333 108.967 95.7 110.1L3.79999 163.2C2.59999 163.867 1.33333 164.4 0 164.8Z" fill="#0D50CE"/>
<path d="M0 120.7V104L54.6 72.5C55.7 71.9 57 71.5 58.2 71.5C59.5 71.5 60.7001 71.9 61.8 72.5C62.9 73.1 63.8 74 64.5 75.2C65.5 76.8 65.7 78.8001 65.2 80.6001C64.7 82.5001 63.5 84.1 61.8 85L0 120.7Z" fill="#0D50CE"/>
</svg>
