<svg width="171" height="338" viewBox="0 0 171 338" fill="none" xmlns="http://www.w3.org/2000/svg">
<path d="M5.80005 20.5C5.80005 10.9 13.7 3 23.3 3H147.6C157.3 3 165.1 10.9 165.1 20.5V316.9C165.1 326.6 157.3 334.4 147.6 334.4H23.3C13.7 334.4 5.80005 326.6 5.80005 316.9V20.5Z" fill="white" stroke="#5578B9" stroke-width="6"/>
<path d="M3 49.2C3 47.3 4.50002 45.7998 6.40002 45.7998V57.7C4.50002 57.7 3 56.1998 3 54.2998V49.2Z" fill="white" stroke="#5578B9" stroke-width="6"/>
<path d="M3 75C3 73.1 4.50002 71.5999 6.40002 71.5999V94.3999C4.50002 94.3999 3 92.9 3 91V75Z" fill="white" stroke="#5578B9" stroke-width="6"/>
<path d="M3 105.2C3 103.3 4.50002 101.8 6.40002 101.8V124.6C4.50002 124.6 3 123 3 121.1V105.2Z" fill="white" stroke="#5578B9" stroke-width="6"/>
<path d="M164.5 79.3999C166.4 79.3999 168 80.9999 168 82.8999V113.1C168 114.9 166.4 116.5 164.5 116.5V79.3999Z" fill="white" stroke="#5578B9" stroke-width="6"/>
</svg>
