<svg width="257" height="332" viewBox="0 0 257 332" fill="none" xmlns="http://www.w3.org/2000/svg">
<g opacity="0.2">
<g opacity="0.3">
<path d="M191.9 3.6001C191 3.6001 190.3 2.7999 190.3 1.8999C190.3 0.999902 191 0.300049 191.9 0.300049C192.8 0.300049 193.6 0.999902 193.6 1.8999C193.6 2.7999 192.8 3.6001 191.9 3.6001ZM199.8 3.6001C198.9 3.6001 198.2 2.7999 198.2 1.8999C198.2 0.999902 198.9 0.300049 199.8 0.300049C200.7 0.300049 201.5 0.999902 201.5 1.8999C201.5 2.7999 200.7 3.6001 199.8 3.6001ZM207.7 3.6001C206.8 3.6001 206.1 2.7999 206.1 1.8999C206.1 0.999902 206.8 0.300049 207.7 0.300049C208.6 0.300049 209.4 0.999902 209.4 1.8999C209.4 2.7999 208.6 3.6001 207.7 3.6001ZM215.6 3.6001C214.7 3.6001 214 2.7999 214 1.8999C214 0.999902 214.7 0.300049 215.6 0.300049C216.5 0.300049 217.3 0.999902 217.3 1.8999C217.3 2.7999 216.5 3.6001 215.6 3.6001ZM223.5 3.6001C222.6 3.6001 221.9 2.7999 221.9 1.8999C221.9 0.999902 222.6 0.300049 223.5 0.300049C224.4 0.300049 225.2 0.999902 225.2 1.8999C225.2 2.7999 224.4 3.6001 223.5 3.6001ZM231.4 3.6001C230.5 3.6001 229.8 2.7999 229.8 1.8999C229.8 0.999902 230.5 0.300049 231.4 0.300049C232.3 0.300049 233.1 0.999902 233.1 1.8999C233.1 2.7999 232.3 3.6001 231.4 3.6001ZM239.3 3.6001C238.4 3.6001 237.7 2.7999 237.7 1.8999C237.7 0.999902 238.4 0.300049 239.3 0.300049C240.2 0.300049 240.9 0.999902 240.9 1.8999C240.9 2.7999 240.2 3.6001 239.3 3.6001ZM247.2 3.6001C246.3 3.6001 245.6 2.7999 245.6 1.8999C245.6 0.999902 246.3 0.300049 247.2 0.300049C248.1 0.300049 248.8 0.999902 248.8 1.8999C248.8 2.7999 248.1 3.6001 247.2 3.6001ZM255.1 3.6001C254.2 3.6001 253.5 2.7999 253.5 1.8999C253.5 0.999902 254.2 0.300049 255.1 0.300049C256 0.300049 256.7 0.999902 256.7 1.8999C256.7 2.7999 256 3.6001 255.1 3.6001Z" fill="#0046CB"/>
<path d="M191.9 14.2C191 14.2 190.3 13.5001 190.3 12.6001C190.3 11.6001 191 10.8999 191.9 10.8999C192.8 10.8999 193.6 11.6001 193.6 12.6001C193.6 13.5001 192.8 14.2 191.9 14.2ZM199.8 14.2C198.9 14.2 198.2 13.5001 198.2 12.6001C198.2 11.6001 198.9 10.8999 199.8 10.8999C200.7 10.8999 201.5 11.6001 201.5 12.6001C201.5 13.5001 200.7 14.2 199.8 14.2ZM207.7 14.2C206.8 14.2 206.1 13.5001 206.1 12.6001C206.1 11.6001 206.8 10.8999 207.7 10.8999C208.6 10.8999 209.4 11.6001 209.4 12.6001C209.4 13.5001 208.6 14.2 207.7 14.2ZM215.6 14.2C214.7 14.2 214 13.5001 214 12.6001C214 11.6001 214.7 10.8999 215.6 10.8999C216.5 10.8999 217.3 11.6001 217.3 12.6001C217.3 13.5001 216.5 14.2 215.6 14.2ZM223.5 14.2C222.6 14.2 221.9 13.5001 221.9 12.6001C221.9 11.6001 222.6 10.8999 223.5 10.8999C224.4 10.8999 225.2 11.6001 225.2 12.6001C225.2 13.5001 224.4 14.2 223.5 14.2ZM231.4 14.2C230.5 14.2 229.8 13.5001 229.8 12.6001C229.8 11.6001 230.5 10.8999 231.4 10.8999C232.3 10.8999 233.1 11.6001 233.1 12.6001C233.1 13.5001 232.3 14.2 231.4 14.2ZM239.3 14.2C238.4 14.2 237.7 13.5001 237.7 12.6001C237.7 11.6001 238.4 10.8999 239.3 10.8999C240.2 10.8999 240.9 11.6001 240.9 12.6001C240.9 13.5001 240.2 14.2 239.3 14.2ZM247.2 14.2C246.3 14.2 245.6 13.5001 245.6 12.6001C245.6 11.6001 246.3 10.8999 247.2 10.8999C248.1 10.8999 248.8 11.6001 248.8 12.6001C248.8 13.5001 248.1 14.2 247.2 14.2ZM255.1 14.2C254.2 14.2 253.5 13.5001 253.5 12.6001C253.5 11.6001 254.2 10.8999 255.1 10.8999C256 10.8999 256.7 11.6001 256.7 12.6001C256.7 13.5001 256 14.2 255.1 14.2Z" fill="#0046CB"/>
<path d="M191.9 24.8C191 24.8 190.3 24.1 190.3 23.2C190.3 22.3 191 21.5 191.9 21.5C192.8 21.5 193.6 22.3 193.6 23.2C193.6 24.1 192.8 24.8 191.9 24.8ZM199.8 24.8C198.9 24.8 198.2 24.1 198.2 23.2C198.2 22.3 198.9 21.5 199.8 21.5C200.7 21.5 201.5 22.3 201.5 23.2C201.5 24.1 200.7 24.8 199.8 24.8ZM207.7 24.8C206.8 24.8 206.1 24.1 206.1 23.2C206.1 22.3 206.8 21.5 207.7 21.5C208.6 21.5 209.4 22.3 209.4 23.2C209.4 24.1 208.6 24.8 207.7 24.8ZM215.6 24.8C214.7 24.8 214 24.1 214 23.2C214 22.3 214.7 21.5 215.6 21.5C216.5 21.5 217.3 22.3 217.3 23.2C217.3 24.1 216.5 24.8 215.6 24.8ZM223.5 24.8C222.6 24.8 221.9 24.1 221.9 23.2C221.9 22.3 222.6 21.5 223.5 21.5C224.4 21.5 225.2 22.3 225.2 23.2C225.2 24.1 224.4 24.8 223.5 24.8ZM231.4 24.8C230.5 24.8 229.8 24.1 229.8 23.2C229.8 22.3 230.5 21.5 231.4 21.5C232.3 21.5 233.1 22.3 233.1 23.2C233.1 24.1 232.3 24.8 231.4 24.8ZM239.3 24.8C238.4 24.8 237.7 24.1 237.7 23.2C237.7 22.3 238.4 21.5 239.3 21.5C240.2 21.5 240.9 22.3 240.9 23.2C240.9 24.1 240.2 24.8 239.3 24.8ZM247.2 24.8C246.3 24.8 245.6 24.1 245.6 23.2C245.6 22.3 246.3 21.5 247.2 21.5C248.1 21.5 248.8 22.3 248.8 23.2C248.8 24.1 248.1 24.8 247.2 24.8ZM255.1 24.8C254.2 24.8 253.5 24.1 253.5 23.2C253.5 22.3 254.2 21.5 255.1 21.5C256 21.5 256.7 22.3 256.7 23.2C256.7 24.1 256 24.8 255.1 24.8Z" fill="#0046CB"/>
<path d="M191.9 35.3999C191 35.3999 190.3 34.7 190.3 33.8C190.3 32.9 191 32.1001 191.9 32.1001C192.8 32.1001 193.6 32.9 193.6 33.8C193.6 34.7 192.8 35.3999 191.9 35.3999ZM199.8 35.3999C198.9 35.3999 198.2 34.7 198.2 33.8C198.2 32.9 198.9 32.1001 199.8 32.1001C200.7 32.1001 201.5 32.9 201.5 33.8C201.5 34.7 200.7 35.3999 199.8 35.3999ZM207.7 35.3999C206.8 35.3999 206.1 34.7 206.1 33.8C206.1 32.9 206.8 32.1001 207.7 32.1001C208.6 32.1001 209.4 32.9 209.4 33.8C209.4 34.7 208.6 35.3999 207.7 35.3999ZM215.6 35.3999C214.7 35.3999 214 34.7 214 33.8C214 32.9 214.7 32.1001 215.6 32.1001C216.5 32.1001 217.3 32.9 217.3 33.8C217.3 34.7 216.5 35.3999 215.6 35.3999ZM223.5 35.3999C222.6 35.3999 221.9 34.7 221.9 33.8C221.9 32.9 222.6 32.1001 223.5 32.1001C224.4 32.1001 225.2 32.9 225.2 33.8C225.2 34.7 224.4 35.3999 223.5 35.3999ZM231.4 35.3999C230.5 35.3999 229.8 34.7 229.8 33.8C229.8 32.9 230.5 32.1001 231.4 32.1001C232.3 32.1001 233.1 32.9 233.1 33.8C233.1 34.7 232.3 35.3999 231.4 35.3999ZM239.3 35.3999C238.4 35.3999 237.7 34.7 237.7 33.8C237.7 32.9 238.4 32.1001 239.3 32.1001C240.2 32.1001 240.9 32.9 240.9 33.8C240.9 34.7 240.2 35.3999 239.3 35.3999ZM247.2 35.3999C246.3 35.3999 245.6 34.7 245.6 33.8C245.6 32.9 246.3 32.1001 247.2 32.1001C248.1 32.1001 248.8 32.9 248.8 33.8C248.8 34.7 248.1 35.3999 247.2 35.3999ZM255.1 35.3999C254.2 35.3999 253.5 34.7 253.5 33.8C253.5 32.9 254.2 32.1001 255.1 32.1001C256 32.1001 256.7 32.9 256.7 33.8C256.7 34.7 256 35.3999 255.1 35.3999Z" fill="#0046CB"/>
<path d="M191.9 46.1001C191 46.1001 190.3 45.2999 190.3 44.3999C190.3 43.4999 191 42.8 191.9 42.8C192.8 42.8 193.6 43.4999 193.6 44.3999C193.6 45.2999 192.8 46.1001 191.9 46.1001ZM199.8 46.1001C198.9 46.1001 198.2 45.2999 198.2 44.3999C198.2 43.4999 198.9 42.8 199.8 42.8C200.7 42.8 201.5 43.4999 201.5 44.3999C201.5 45.2999 200.7 46.1001 199.8 46.1001ZM207.7 46.1001C206.8 46.1001 206.1 45.2999 206.1 44.3999C206.1 43.4999 206.8 42.8 207.7 42.8C208.6 42.8 209.4 43.4999 209.4 44.3999C209.4 45.2999 208.6 46.1001 207.7 46.1001ZM215.6 46.1001C214.7 46.1001 214 45.2999 214 44.3999C214 43.4999 214.7 42.8 215.6 42.8C216.5 42.8 217.3 43.4999 217.3 44.3999C217.3 45.2999 216.5 46.1001 215.6 46.1001ZM223.5 46.1001C222.6 46.1001 221.9 45.2999 221.9 44.3999C221.9 43.4999 222.6 42.8 223.5 42.8C224.4 42.8 225.2 43.4999 225.2 44.3999C225.2 45.2999 224.4 46.1001 223.5 46.1001ZM231.4 46.1001C230.5 46.1001 229.8 45.2999 229.8 44.3999C229.8 43.4999 230.5 42.8 231.4 42.8C232.3 42.8 233.1 43.4999 233.1 44.3999C233.1 45.2999 232.3 46.1001 231.4 46.1001ZM239.3 46.1001C238.4 46.1001 237.7 45.2999 237.7 44.3999C237.7 43.4999 238.4 42.8 239.3 42.8C240.2 42.8 240.9 43.4999 240.9 44.3999C240.9 45.2999 240.2 46.1001 239.3 46.1001ZM247.2 46.1001C246.3 46.1001 245.6 45.2999 245.6 44.3999C245.6 43.4999 246.3 42.8 247.2 42.8C248.1 42.8 248.8 43.4999 248.8 44.3999C248.8 45.2999 248.1 46.1001 247.2 46.1001ZM255.1 46.1001C254.2 46.1001 253.5 45.2999 253.5 44.3999C253.5 43.4999 254.2 42.8 255.1 42.8C256 42.8 256.7 43.4999 256.7 44.3999C256.7 45.2999 256 46.1001 255.1 46.1001Z" fill="#0046CB"/>
<path d="M191.9 56.7C191 56.7 190.3 55.9 190.3 55C190.3 54.1 191 53.3999 191.9 53.3999C192.8 53.3999 193.6 54.1 193.6 55C193.6 55.9 192.8 56.7 191.9 56.7ZM199.8 56.7C198.9 56.7 198.2 55.9 198.2 55C198.2 54.1 198.9 53.3999 199.8 53.3999C200.7 53.3999 201.5 54.1 201.5 55C201.5 55.9 200.7 56.7 199.8 56.7ZM207.7 56.7C206.8 56.7 206.1 55.9 206.1 55C206.1 54.1 206.8 53.3999 207.7 53.3999C208.6 53.3999 209.4 54.1 209.4 55C209.4 55.9 208.6 56.7 207.7 56.7ZM215.6 56.7C214.7 56.7 214 55.9 214 55C214 54.1 214.7 53.3999 215.6 53.3999C216.5 53.3999 217.3 54.1 217.3 55C217.3 55.9 216.5 56.7 215.6 56.7ZM223.5 56.7C222.6 56.7 221.9 55.9 221.9 55C221.9 54.1 222.6 53.3999 223.5 53.3999C224.4 53.3999 225.2 54.1 225.2 55C225.2 55.9 224.4 56.7 223.5 56.7ZM231.4 56.7C230.5 56.7 229.8 55.9 229.8 55C229.8 54.1 230.5 53.3999 231.4 53.3999C232.3 53.3999 233.1 54.1 233.1 55C233.1 55.9 232.3 56.7 231.4 56.7ZM239.3 56.7C238.4 56.7 237.7 55.9 237.7 55C237.7 54.1 238.4 53.3999 239.3 53.3999C240.2 53.3999 240.9 54.1 240.9 55C240.9 55.9 240.2 56.7 239.3 56.7ZM247.2 56.7C246.3 56.7 245.6 55.9 245.6 55C245.6 54.1 246.3 53.3999 247.2 53.3999C248.1 53.3999 248.8 54.1 248.8 55C248.8 55.9 248.1 56.7 247.2 56.7ZM255.1 56.7C254.2 56.7 253.5 55.9 253.5 55C253.5 54.1 254.2 53.3999 255.1 53.3999C256 53.3999 256.7 54.1 256.7 55C256.7 55.9 256 56.7 255.1 56.7Z" fill="#0046CB"/>
</g>
<g opacity="0.3">
<path d="M1.90002 278.6C1.00002 278.6 0.300049 277.8 0.300049 276.9C0.300049 276 1.00002 275.3 1.90002 275.3C2.80002 275.3 3.59998 276 3.59998 276.9C3.59998 277.8 2.80002 278.6 1.90002 278.6ZM9.80005 278.6C8.90005 278.6 8.19995 277.8 8.19995 276.9C8.19995 276 8.90005 275.3 9.80005 275.3C10.7 275.3 11.5 276 11.5 276.9C11.5 277.8 10.7 278.6 9.80005 278.6ZM17.7 278.6C16.8 278.6 16.1 277.8 16.1 276.9C16.1 276 16.8 275.3 17.7 275.3C18.6 275.3 19.4 276 19.4 276.9C19.4 277.8 18.6 278.6 17.7 278.6ZM25.6 278.6C24.7 278.6 24 277.8 24 276.9C24 276 24.7 275.3 25.6 275.3C26.5 275.3 27.3 276 27.3 276.9C27.3 277.8 26.5 278.6 25.6 278.6ZM33.5 278.6C32.6 278.6 31.9 277.8 31.9 276.9C31.9 276 32.6 275.3 33.5 275.3C34.4 275.3 35.2 276 35.2 276.9C35.2 277.8 34.4 278.6 33.5 278.6ZM41.4 278.6C40.5 278.6 39.8 277.8 39.8 276.9C39.8 276 40.5 275.3 41.4 275.3C42.3 275.3 43.1 276 43.1 276.9C43.1 277.8 42.3 278.6 41.4 278.6ZM49.3 278.6C48.4 278.6 47.7 277.8 47.7 276.9C47.7 276 48.4 275.3 49.3 275.3C50.2001 275.3 50.9 276 50.9 276.9C50.9 277.8 50.2001 278.6 49.3 278.6ZM57.2 278.6C56.2999 278.6 55.6 277.8 55.6 276.9C55.6 276 56.2999 275.3 57.2 275.3C58.1 275.3 58.8 276 58.8 276.9C58.8 277.8 58.1 278.6 57.2 278.6ZM65.1 278.6C64.2 278.6 63.5 277.8 63.5 276.9C63.5 276 64.2 275.3 65.1 275.3C66 275.3 66.7 276 66.7 276.9C66.7 277.8 66 278.6 65.1 278.6Z" fill="#0046CB"/>
<path d="M1.90002 289.2C1.00002 289.2 0.300049 288.5 0.300049 287.6C0.300049 286.6 1.00002 285.9 1.90002 285.9C2.80002 285.9 3.59998 286.6 3.59998 287.6C3.59998 288.5 2.80002 289.2 1.90002 289.2ZM9.80005 289.2C8.90005 289.2 8.19995 288.5 8.19995 287.6C8.19995 286.6 8.90005 285.9 9.80005 285.9C10.7 285.9 11.5 286.6 11.5 287.6C11.5 288.5 10.7 289.2 9.80005 289.2ZM17.7 289.2C16.8 289.2 16.1 288.5 16.1 287.6C16.1 286.6 16.8 285.9 17.7 285.9C18.6 285.9 19.4 286.6 19.4 287.6C19.4 288.5 18.6 289.2 17.7 289.2ZM25.6 289.2C24.7 289.2 24 288.5 24 287.6C24 286.6 24.7 285.9 25.6 285.9C26.5 285.9 27.3 286.6 27.3 287.6C27.3 288.5 26.5 289.2 25.6 289.2ZM33.5 289.2C32.6 289.2 31.9 288.5 31.9 287.6C31.9 286.6 32.6 285.9 33.5 285.9C34.4 285.9 35.2 286.6 35.2 287.6C35.2 288.5 34.4 289.2 33.5 289.2ZM41.4 289.2C40.5 289.2 39.8 288.5 39.8 287.6C39.8 286.6 40.5 285.9 41.4 285.9C42.3 285.9 43.1 286.6 43.1 287.6C43.1 288.5 42.3 289.2 41.4 289.2ZM49.3 289.2C48.4 289.2 47.7 288.5 47.7 287.6C47.7 286.6 48.4 285.9 49.3 285.9C50.2001 285.9 50.9 286.6 50.9 287.6C50.9 288.5 50.2001 289.2 49.3 289.2ZM57.2 289.2C56.2999 289.2 55.6 288.5 55.6 287.6C55.6 286.6 56.2999 285.9 57.2 285.9C58.1 285.9 58.8 286.6 58.8 287.6C58.8 288.5 58.1 289.2 57.2 289.2ZM65.1 289.2C64.2 289.2 63.5 288.5 63.5 287.6C63.5 286.6 64.2 285.9 65.1 285.9C66 285.9 66.7 286.6 66.7 287.6C66.7 288.5 66 289.2 65.1 289.2Z" fill="#0046CB"/>
<path d="M1.90002 299.8C1.00002 299.8 0.300049 299.1 0.300049 298.2C0.300049 297.3 1.00002 296.5 1.90002 296.5C2.80002 296.5 3.59998 297.3 3.59998 298.2C3.59998 299.1 2.80002 299.8 1.90002 299.8ZM9.80005 299.8C8.90005 299.8 8.19995 299.1 8.19995 298.2C8.19995 297.3 8.90005 296.5 9.80005 296.5C10.7 296.5 11.5 297.3 11.5 298.2C11.5 299.1 10.7 299.8 9.80005 299.8ZM17.7 299.8C16.8 299.8 16.1 299.1 16.1 298.2C16.1 297.3 16.8 296.5 17.7 296.5C18.6 296.5 19.4 297.3 19.4 298.2C19.4 299.1 18.6 299.8 17.7 299.8ZM25.6 299.8C24.7 299.8 24 299.1 24 298.2C24 297.3 24.7 296.5 25.6 296.5C26.5 296.5 27.3 297.3 27.3 298.2C27.3 299.1 26.5 299.8 25.6 299.8ZM33.5 299.8C32.6 299.8 31.9 299.1 31.9 298.2C31.9 297.3 32.6 296.5 33.5 296.5C34.4 296.5 35.2 297.3 35.2 298.2C35.2 299.1 34.4 299.8 33.5 299.8ZM41.4 299.8C40.5 299.8 39.8 299.1 39.8 298.2C39.8 297.3 40.5 296.5 41.4 296.5C42.3 296.5 43.1 297.3 43.1 298.2C43.1 299.1 42.3 299.8 41.4 299.8ZM49.3 299.8C48.4 299.8 47.7 299.1 47.7 298.2C47.7 297.3 48.4 296.5 49.3 296.5C50.2001 296.5 50.9 297.3 50.9 298.2C50.9 299.1 50.2001 299.8 49.3 299.8ZM57.2 299.8C56.2999 299.8 55.6 299.1 55.6 298.2C55.6 297.3 56.2999 296.5 57.2 296.5C58.1 296.5 58.8 297.3 58.8 298.2C58.8 299.1 58.1 299.8 57.2 299.8ZM65.1 299.8C64.2 299.8 63.5 299.1 63.5 298.2C63.5 297.3 64.2 296.5 65.1 296.5C66 296.5 66.7 297.3 66.7 298.2C66.7 299.1 66 299.8 65.1 299.8Z" fill="#0046CB"/>
<path d="M1.90002 310.4C1.00002 310.4 0.300049 309.7 0.300049 308.8C0.300049 307.9 1.00002 307.1 1.90002 307.1C2.80002 307.1 3.59998 307.9 3.59998 308.8C3.59998 309.7 2.80002 310.4 1.90002 310.4ZM9.80005 310.4C8.90005 310.4 8.19995 309.7 8.19995 308.8C8.19995 307.9 8.90005 307.1 9.80005 307.1C10.7 307.1 11.5 307.9 11.5 308.8C11.5 309.7 10.7 310.4 9.80005 310.4ZM17.7 310.4C16.8 310.4 16.1 309.7 16.1 308.8C16.1 307.9 16.8 307.1 17.7 307.1C18.6 307.1 19.4 307.9 19.4 308.8C19.4 309.7 18.6 310.4 17.7 310.4ZM25.6 310.4C24.7 310.4 24 309.7 24 308.8C24 307.9 24.7 307.1 25.6 307.1C26.5 307.1 27.3 307.9 27.3 308.8C27.3 309.7 26.5 310.4 25.6 310.4ZM33.5 310.4C32.6 310.4 31.9 309.7 31.9 308.8C31.9 307.9 32.6 307.1 33.5 307.1C34.4 307.1 35.2 307.9 35.2 308.8C35.2 309.7 34.4 310.4 33.5 310.4ZM41.4 310.4C40.5 310.4 39.8 309.7 39.8 308.8C39.8 307.9 40.5 307.1 41.4 307.1C42.3 307.1 43.1 307.9 43.1 308.8C43.1 309.7 42.3 310.4 41.4 310.4ZM49.3 310.4C48.4 310.4 47.7 309.7 47.7 308.8C47.7 307.9 48.4 307.1 49.3 307.1C50.2001 307.1 50.9 307.9 50.9 308.8C50.9 309.7 50.2001 310.4 49.3 310.4ZM57.2 310.4C56.2999 310.4 55.6 309.7 55.6 308.8C55.6 307.9 56.2999 307.1 57.2 307.1C58.1 307.1 58.8 307.9 58.8 308.8C58.8 309.7 58.1 310.4 57.2 310.4ZM65.1 310.4C64.2 310.4 63.5 309.7 63.5 308.8C63.5 307.9 64.2 307.1 65.1 307.1C66 307.1 66.7 307.9 66.7 308.8C66.7 309.7 66 310.4 65.1 310.4Z" fill="#0046CB"/>
<path d="M1.90002 321.1C1.00002 321.1 0.300049 320.3 0.300049 319.4C0.300049 318.5 1.00002 317.8 1.90002 317.8C2.80002 317.8 3.59998 318.5 3.59998 319.4C3.59998 320.3 2.80002 321.1 1.90002 321.1ZM9.80005 321.1C8.90005 321.1 8.19995 320.3 8.19995 319.4C8.19995 318.5 8.90005 317.8 9.80005 317.8C10.7 317.8 11.5 318.5 11.5 319.4C11.5 320.3 10.7 321.1 9.80005 321.1ZM17.7 321.1C16.8 321.1 16.1 320.3 16.1 319.4C16.1 318.5 16.8 317.8 17.7 317.8C18.6 317.8 19.4 318.5 19.4 319.4C19.4 320.3 18.6 321.1 17.7 321.1ZM25.6 321.1C24.7 321.1 24 320.3 24 319.4C24 318.5 24.7 317.8 25.6 317.8C26.5 317.8 27.3 318.5 27.3 319.4C27.3 320.3 26.5 321.1 25.6 321.1ZM33.5 321.1C32.6 321.1 31.9 320.3 31.9 319.4C31.9 318.5 32.6 317.8 33.5 317.8C34.4 317.8 35.2 318.5 35.2 319.4C35.2 320.3 34.4 321.1 33.5 321.1ZM41.4 321.1C40.5 321.1 39.8 320.3 39.8 319.4C39.8 318.5 40.5 317.8 41.4 317.8C42.3 317.8 43.1 318.5 43.1 319.4C43.1 320.3 42.3 321.1 41.4 321.1ZM49.3 321.1C48.4 321.1 47.7 320.3 47.7 319.4C47.7 318.5 48.4 317.8 49.3 317.8C50.2001 317.8 50.9 318.5 50.9 319.4C50.9 320.3 50.2001 321.1 49.3 321.1ZM57.2 321.1C56.2999 321.1 55.6 320.3 55.6 319.4C55.6 318.5 56.2999 317.8 57.2 317.8C58.1 317.8 58.8 318.5 58.8 319.4C58.8 320.3 58.1 321.1 57.2 321.1ZM65.1 321.1C64.2 321.1 63.5 320.3 63.5 319.4C63.5 318.5 64.2 317.8 65.1 317.8C66 317.8 66.7 318.5 66.7 319.4C66.7 320.3 66 321.1 65.1 321.1Z" fill="#0046CB"/>
<path d="M1.90002 331.7C1.00002 331.7 0.300049 330.9 0.300049 330C0.300049 329.1 1.00002 328.4 1.90002 328.4C2.80002 328.4 3.59998 329.1 3.59998 330C3.59998 330.9 2.80002 331.7 1.90002 331.7ZM9.80005 331.7C8.90005 331.7 8.19995 330.9 8.19995 330C8.19995 329.1 8.90005 328.4 9.80005 328.4C10.7 328.4 11.5 329.1 11.5 330C11.5 330.9 10.7 331.7 9.80005 331.7ZM17.7 331.7C16.8 331.7 16.1 330.9 16.1 330C16.1 329.1 16.8 328.4 17.7 328.4C18.6 328.4 19.4 329.1 19.4 330C19.4 330.9 18.6 331.7 17.7 331.7ZM25.6 331.7C24.7 331.7 24 330.9 24 330C24 329.1 24.7 328.4 25.6 328.4C26.5 328.4 27.3 329.1 27.3 330C27.3 330.9 26.5 331.7 25.6 331.7ZM33.5 331.7C32.6 331.7 31.9 330.9 31.9 330C31.9 329.1 32.6 328.4 33.5 328.4C34.4 328.4 35.2 329.1 35.2 330C35.2 330.9 34.4 331.7 33.5 331.7ZM41.4 331.7C40.5 331.7 39.8 330.9 39.8 330C39.8 329.1 40.5 328.4 41.4 328.4C42.3 328.4 43.1 329.1 43.1 330C43.1 330.9 42.3 331.7 41.4 331.7ZM49.3 331.7C48.4 331.7 47.7 330.9 47.7 330C47.7 329.1 48.4 328.4 49.3 328.4C50.2001 328.4 50.9 329.1 50.9 330C50.9 330.9 50.2001 331.7 49.3 331.7ZM57.2 331.7C56.2999 331.7 55.6 330.9 55.6 330C55.6 329.1 56.2999 328.4 57.2 328.4C58.1 328.4 58.8 329.1 58.8 330C58.8 330.9 58.1 331.7 57.2 331.7ZM65.1 331.7C64.2 331.7 63.5 330.9 63.5 330C63.5 329.1 64.2 328.4 65.1 328.4C66 328.4 66.7 329.1 66.7 330C66.7 330.9 66 331.7 65.1 331.7Z" fill="#0046CB"/>
</g>
</g>
</svg>
