<svg width="146" height="287" viewBox="0 0 146 287" fill="none" xmlns="http://www.w3.org/2000/svg">
<path d="M5.40002 20.5C5.40002 10.9 13.2 3 22.9 3H122.8C132.5 3 140.3 10.9 140.3 20.5V266.3C140.3 275.9 132.5 283.8 122.8 283.8H22.9C13.2 283.8 5.40002 275.9 5.40002 266.3V20.5Z" fill="white" stroke="#B8B8B8" stroke-width="6"/>
<path d="M3 42.0999C3 40.4999 4.30002 39.2 5.90002 39.2V49.3999C4.30002 49.3999 3 48.1 3 46.5V42.0999Z" fill="white" stroke="#B8B8B8" stroke-width="6"/>
<path d="M3 64C3 62.4 4.30002 61.0999 5.90002 61.0999V80.3999C4.30002 80.3999 3 79.1 3 77.5V64Z" fill="white" stroke="#B8B8B8" stroke-width="6"/>
<path d="M3 89.5999C3 87.9999 4.30002 86.7 5.90002 86.7V106C4.30002 106 3 104.7 3 103.1V89.5999Z" fill="white" stroke="#B8B8B8" stroke-width="6"/>
<path d="M139.9 67.7998C141.5 67.7998 142.7 69.1 142.7 70.7V96.2C142.7 97.8 141.5 99.0999 139.9 99.0999V67.7998Z" fill="white" stroke="#B8B8B8" stroke-width="6"/>
</svg>
